<svg host="app.diagrams.net" xmlns="http://www.w3.org/2000/svg" xmlns:xlink="http://www.w3.org/1999/xlink" version="1.1" width="1400" height="2620" viewBox="0 0 1400 2620" content="&lt;mxGraphModel adaptiveColors=&quot;auto&quot;&gt;&lt;root&gt;&lt;mxCell id=&quot;0&quot;/&gt;&lt;mxCell id=&quot;1&quot; parent=&quot;0&quot;/&gt;&lt;mxCell id=&quot;t1&quot; value=&quot;&amp;lt;b&amp;gt;Figure 1: Dashboard Screen Layout&amp;lt;/b&amp;gt;&amp;lt;br&amp;gt;&amp;lt;span style=&amp;quot;font-size:11px;color:#9fb0c8&amp;quot;&amp;gt;Infinite Canvas + Floating Windows / 無限キャンバス＋フローティングウィンドウ&amp;lt;/span&amp;gt;&quot; style=&quot;text;html=1;align=left;verticalAlign=middle;fontSize=16;fontColor=#e0e8f0;&quot; vertex=&quot;1&quot; parent=&quot;1&quot;&gt;&lt;mxGeometry x=&quot;40&quot; y=&quot;10&quot; width=&quot;1300&quot; height=&quot;40&quot; as=&quot;geometry&quot;/&gt;&lt;/mxCell&gt;&lt;/root&gt;&lt;/mxGraphModel&gt;">
  <defs>
    <pattern id="grid" width="40" height="40" patternUnits="userSpaceOnUse">
      <path d="M 40 0 L 0 0 0 40" fill="none" stroke="#1a2540" stroke-width="0.5"/>
    </pattern>
    <linearGradient id="windowGlass" x1="0%" y1="0%" x2="0%" y2="100%">
      <stop offset="0%" stop-color="#1a2440" stop-opacity="0.95"/>
      <stop offset="100%" stop-color="#0f1628" stop-opacity="0.95"/>
    </linearGradient>
    <linearGradient id="titleBar" x1="0%" y1="0%" x2="0%" y2="100%">
      <stop offset="0%" stop-color="#2a3a5a"/>
      <stop offset="100%" stop-color="#1a2540"/>
    </linearGradient>
  </defs>
  <rect width="1400" height="2620" fill="#05080f"/>

  <!-- ============ FIGURE 1: Dashboard ============ -->
  <text x="40" y="35" font-family="sans-serif" font-size="18" font-weight="bold" fill="#e0e8f0">Figure 1: Dashboard Screen Layout — Infinite Canvas + Floating Windows / 無限キャンバス＋フローティングウィンドウ</text>

  <!-- App window frame -->
  <rect x="40" y="60" width="1320" height="820" rx="10" fill="#0a0e1a" stroke="#2a3a5a" stroke-width="2"/>

  <!-- Menu bar -->
  <rect x="40" y="60" width="1320" height="36" rx="10" fill="#141a2e" stroke="#2a3a5a"/>
  <rect x="40" y="80" width="1320" height="16" fill="#141a2e" stroke="none"/>
  <text x="60" y="83" font-family="sans-serif" font-size="13" fill="#e0e8f0">File</text>
  <text x="100" y="83" font-family="sans-serif" font-size="13" fill="#9fb0c8">View</text>
  <text x="148" y="83" font-family="sans-serif" font-size="13" fill="#9fb0c8">Replay</text>
  <text x="208" y="83" font-family="sans-serif" font-size="13" fill="#9fb0c8">Venue</text>
  <text x="262" y="83" font-family="sans-serif" font-size="13" fill="#9fb0c8">Help</text>
  <text x="1100" y="83" font-family="sans-serif" font-size="11" fill="#5a7090">MenuBar (bevy_ui Node, screen-space)</text>

  <!-- File dropdown peek -->
  <rect x="40" y="96" width="180" height="84" fill="#1a2440" stroke="#00CFFF" stroke-width="1"/>
  <text x="56" y="116" font-family="sans-serif" font-size="12" fill="#00CFFF">Open Replay Data...</text>
  <text x="56" y="138" font-family="sans-serif" font-size="12" fill="#9fb0c8">Save Layout</text>
  <text x="56" y="160" font-family="sans-serif" font-size="12" fill="#9fb0c8">Exit</text>

  <!-- Sidebar -->
  <rect x="40" y="96" width="200" height="724" fill="#0c1322" stroke="#2a3a5a"/>
  <rect x="40" y="96" width="200" height="20" fill="#1a2440" stroke="none"/>
  <text x="56" y="111" font-family="sans-serif" font-size="11" font-weight="bold" fill="#e0e8f0">Tickers / 銘柄一覧</text>
  <rect x="56" y="124" width="168" height="22" fill="#1a2440" stroke="#2a3a5a"/>
  <text x="64" y="139" font-family="monospace" font-size="11" fill="#00FF7F">7203  Toyota</text>
  <text x="200" y="139" font-family="monospace" font-size="10" fill="#9fb0c8">+1.2%</text>
  <rect x="56" y="150" width="168" height="22" fill="#0f1628" stroke="#1a2540"/>
  <text x="64" y="165" font-family="monospace" font-size="11" fill="#e0e8f0">6758  Sony</text>
  <text x="208" y="165" font-family="monospace" font-size="10" fill="#FF3366">-0.4%</text>
  <rect x="56" y="176" width="168" height="22" fill="#0f1628" stroke="#1a2540"/>
  <text x="64" y="191" font-family="monospace" font-size="11" fill="#e0e8f0">9984  SoftBank</text>
  <text x="208" y="191" font-family="monospace" font-size="10" fill="#00FF7F">+2.1%</text>
  <rect x="56" y="202" width="168" height="22" fill="#0f1628" stroke="#1a2540"/>
  <text x="64" y="217" font-family="monospace" font-size="11" fill="#e0e8f0">8306  MUFG</text>
  <text x="208" y="217" font-family="monospace" font-size="10" fill="#9fb0c8">0.0%</text>

  <text x="56" y="450" font-family="sans-serif" font-size="11" font-weight="bold" fill="#e0e8f0">Settings / 設定</text>
  <rect x="40" y="460" width="200" height="1" fill="#2a3a5a"/>
  <text x="56" y="482" font-family="sans-serif" font-size="11" fill="#9fb0c8">Theme</text>
  <rect x="160" y="472" width="64" height="16" fill="#1a2440" stroke="#2a3a5a"/>
  <text x="168" y="484" font-family="sans-serif" font-size="10" fill="#e0e8f0">Dark ▾</text>
  <text x="56" y="508" font-family="sans-serif" font-size="11" fill="#9fb0c8">Backend</text>
  <text x="160" y="508" font-family="sans-serif" font-size="10" fill="#00CFFF">localhost:50051</text>
  <text x="56" y="534" font-family="sans-serif" font-size="11" fill="#9fb0c8">Window Layout</text>
  <rect x="160" y="524" width="64" height="16" fill="#1a2440" stroke="#2a3a5a"/>
  <text x="168" y="536" font-family="sans-serif" font-size="10" fill="#e0e8f0">Save...</text>

  <text x="56" y="804" font-family="sans-serif" font-size="10" fill="#5a7090">Sidebar (bevy_ui, screen-space, 固定)</text>

  <!-- Canvas (infinite) -->
  <rect x="240" y="96" width="1120" height="724" fill="#05080f"/>
  <rect x="240" y="96" width="1120" height="724" fill="url(#grid)"/>
  <text x="1190" y="116" font-family="sans-serif" font-size="11" fill="#5a7090">Infinite Canvas (Camera2d + PanCam, world-space)</text>

  <!-- Floating window: Kline Chart -->
  <g>
    <rect x="276" y="140" width="440" height="320" rx="6" fill="url(#windowGlass)" stroke="#00CFFF" stroke-width="1" opacity="0.95"/>
    <rect x="276" y="140" width="440" height="28" rx="6" fill="url(#titleBar)"/>
    <rect x="276" y="160" width="440" height="8" fill="#1a2540"/>
    <circle cx="290" cy="154" r="4" fill="#00FF7F"/>
    <text x="304" y="158" font-family="sans-serif" font-size="11" font-weight="bold" fill="#e0e8f0">KLINE CHART — 7203 Toyota</text>
    <text x="660" y="158" font-family="monospace" font-size="11" fill="#9fb0c8">— □ ×</text>
    <text x="296" y="200" font-family="sans-serif" font-size="34" font-weight="bold" fill="#00FF7F">¥2,485</text>
    <text x="296" y="222" font-family="sans-serif" font-size="12" fill="#9fb0c8">+30 (+1.22%)</text>
    <!-- candlesticks -->
    <g transform="translate(296,240)">
      <line x1="20" y1="40" x2="20" y2="120" stroke="#00FF7F" stroke-width="1"/>
      <rect x="14" y="60" width="12" height="40" fill="#00FF7F"/>
      <line x1="50" y1="30" x2="50" y2="110" stroke="#FF3366" stroke-width="1"/>
      <rect x="44" y="50" width="12" height="50" fill="#FF3366"/>
      <line x1="80" y1="50" x2="80" y2="130" stroke="#00FF7F" stroke-width="1"/>
      <rect x="74" y="70" width="12" height="50" fill="#00FF7F"/>
      <line x1="110" y1="20" x2="110" y2="100" stroke="#00FF7F" stroke-width="1"/>
      <rect x="104" y="40" width="12" height="50" fill="#00FF7F"/>
      <line x1="140" y1="35" x2="140" y2="115" stroke="#FF3366" stroke-width="1"/>
      <rect x="134" y="60" width="12" height="40" fill="#FF3366"/>
      <line x1="170" y1="25" x2="170" y2="95" stroke="#00FF7F" stroke-width="1"/>
      <rect x="164" y="45" width="12" height="40" fill="#00FF7F"/>
      <line x1="200" y1="10" x2="200" y2="80" stroke="#00FF7F" stroke-width="1"/>
      <rect x="194" y="20" width="12" height="50" fill="#00FF7F"/>
      <line x1="230" y1="15" x2="230" y2="90" stroke="#FF3366" stroke-width="1"/>
      <rect x="224" y="30" width="12" height="50" fill="#FF3366"/>
      <line x1="260" y1="5" x2="260" y2="85" stroke="#00FF7F" stroke-width="1"/>
      <rect x="254" y="15" width="12" height="60" fill="#00FF7F"/>
      <line x1="290" y1="20" x2="290" y2="100" stroke="#00FF7F" stroke-width="1"/>
      <rect x="284" y="30" width="12" height="60" fill="#00FF7F"/>
      <line x1="320" y1="35" x2="320" y2="115" stroke="#FF3366" stroke-width="1"/>
      <rect x="314" y="50" width="12" height="50" fill="#FF3366"/>
      <line x1="350" y1="10" x2="350" y2="90" stroke="#00FF7F" stroke-width="1"/>
      <rect x="344" y="25" width="12" height="55" fill="#00FF7F"/>
      <line x1="380" y1="0" x2="380" y2="80" stroke="#00FF7F" stroke-width="1"/>
      <rect x="374" y="5" width="12" height="65" fill="#00FF7F"/>
    </g>
    <rect x="296" y="412" width="80" height="28" rx="4" fill="#00FF7F"/>
    <text x="336" y="431" font-family="sans-serif" font-size="13" font-weight="bold" fill="#0a0e1a" text-anchor="middle">BUY</text>
    <rect x="386" y="412" width="80" height="28" rx="4" fill="#FF3366"/>
    <text x="426" y="431" font-family="sans-serif" font-size="13" font-weight="bold" fill="#0a0e1a" text-anchor="middle">SELL</text>
    <text x="620" y="430" font-family="sans-serif" font-size="9" fill="#5a7090">WindowRoot (Sprite, world)</text>
  </g>

  <!-- Floating window: Ladder -->
  <g>
    <rect x="740" y="140" width="240" height="380" rx="6" fill="url(#windowGlass)" stroke="#00CFFF" stroke-width="1" opacity="0.95"/>
    <rect x="740" y="140" width="240" height="28" rx="6" fill="url(#titleBar)"/>
    <rect x="740" y="160" width="240" height="8" fill="#1a2540"/>
    <circle cx="754" cy="154" r="4" fill="#00FF7F"/>
    <text x="768" y="158" font-family="sans-serif" font-size="11" font-weight="bold" fill="#e0e8f0">LADDER / 板 — 7203</text>
    <text x="940" y="158" font-family="monospace" font-size="11" fill="#9fb0c8">— □ ×</text>
    <text x="754" y="186" font-family="sans-serif" font-size="10" fill="#9fb0c8">BID</text>
    <text x="820" y="186" font-family="sans-serif" font-size="10" fill="#9fb0c8">PRICE</text>
    <text x="900" y="186" font-family="sans-serif" font-size="10" fill="#9fb0c8">ASK</text>
    <g font-family="monospace" font-size="11">
      <rect x="746" y="192" width="228" height="20" fill="#0f1628"/>
      <text x="780" y="206" fill="#9fb0c8" text-anchor="end"></text><text x="820" y="206" fill="#FF3366">2,495</text><text x="970" y="206" fill="#FF3366" text-anchor="end">12,400</text>
      <rect x="746" y="212" width="228" height="20" fill="#15101a"/>
      <text x="780" y="226" fill="#9fb0c8" text-anchor="end"></text><text x="820" y="226" fill="#FF3366">2,492</text><text x="970" y="226" fill="#FF3366" text-anchor="end">8,200</text>
      <rect x="746" y="232" width="228" height="20" fill="#0f1628"/>
      <text x="780" y="246" fill="#9fb0c8" text-anchor="end"></text><text x="820" y="246" fill="#FF3366">2,490</text><text x="970" y="246" fill="#FF3366" text-anchor="end">5,100</text>
      <rect x="746" y="252" width="228" height="22" fill="#1a2540"/>
      <text x="820" y="268" fill="#00CFFF" font-weight="bold">2,485</text><text x="780" y="268" fill="#00CFFF" font-weight="bold" text-anchor="end">LAST</text>
      <rect x="746" y="274" width="228" height="20" fill="#0f1628"/>
      <text x="780" y="288" fill="#00FF7F" text-anchor="end">3,400</text><text x="820" y="288" fill="#00FF7F">2,484</text>
      <rect x="746" y="294" width="228" height="20" fill="#101a13"/>
      <text x="780" y="308" fill="#00FF7F" text-anchor="end">6,800</text><text x="820" y="308" fill="#00FF7F">2,482</text>
      <rect x="746" y="314" width="228" height="20" fill="#0f1628"/>
      <text x="780" y="328" fill="#00FF7F" text-anchor="end">9,100</text><text x="820" y="328" fill="#00FF7F">2,480</text>
      <rect x="746" y="334" width="228" height="20" fill="#101a13"/>
      <text x="780" y="348" fill="#00FF7F" text-anchor="end">15,200</text><text x="820" y="348" fill="#00FF7F">2,478</text>
    </g>
    <rect x="746" y="464" width="110" height="48" rx="4" fill="#0f1628" stroke="#00FF7F"/>
    <text x="801" y="482" font-family="sans-serif" font-size="10" fill="#9fb0c8" text-anchor="middle">QTY</text>
    <text x="801" y="500" font-family="monospace" font-size="14" fill="#00FF7F" text-anchor="middle">100</text>
    <rect x="864" y="464" width="110" height="22" rx="4" fill="#00FF7F"/>
    <text x="919" y="480" font-family="sans-serif" font-size="11" font-weight="bold" fill="#0a0e1a" text-anchor="middle">BUY</text>
    <rect x="864" y="490" width="110" height="22" rx="4" fill="#FF3366"/>
    <text x="919" y="506" font-family="sans-serif" font-size="11" font-weight="bold" fill="#0a0e1a" text-anchor="middle">SELL</text>
  </g>

  <!-- Floating window: Buying Power -->
  <g>
    <rect x="1000" y="140" width="320" height="140" rx="6" fill="url(#windowGlass)" stroke="#00CFFF" stroke-width="1" opacity="0.95"/>
    <rect x="1000" y="140" width="320" height="28" rx="6" fill="url(#titleBar)"/>
    <rect x="1000" y="160" width="320" height="8" fill="#1a2540"/>
    <circle cx="1014" cy="154" r="4" fill="#00FF7F"/>
    <text x="1028" y="158" font-family="sans-serif" font-size="11" font-weight="bold" fill="#e0e8f0">BUYING POWER / 買余力</text>
    <text x="1020" y="200" font-family="sans-serif" font-size="11" fill="#9fb0c8">現金</text>
    <text x="1300" y="200" font-family="monospace" font-size="13" fill="#e0e8f0" text-anchor="end">¥10,000,000</text>
    <text x="1020" y="226" font-family="sans-serif" font-size="11" fill="#9fb0c8">評価額</text>
    <text x="1300" y="226" font-family="monospace" font-size="13" fill="#00FF7F" text-anchor="end">¥2,485,000</text>
    <text x="1020" y="252" font-family="sans-serif" font-size="11" font-weight="bold" fill="#00CFFF">建余力</text>
    <text x="1300" y="252" font-family="monospace" font-size="14" font-weight="bold" fill="#00CFFF" text-anchor="end">¥7,515,000</text>
  </g>

  <!-- Floating window: Positions -->
  <g>
    <rect x="1000" y="300" width="320" height="220" rx="6" fill="url(#windowGlass)" stroke="#00CFFF" stroke-width="1" opacity="0.95"/>
    <rect x="1000" y="300" width="320" height="28" rx="6" fill="url(#titleBar)"/>
    <rect x="1000" y="320" width="320" height="8" fill="#1a2540"/>
    <circle cx="1014" cy="314" r="4" fill="#00FF7F"/>
    <text x="1028" y="318" font-family="sans-serif" font-size="11" font-weight="bold" fill="#e0e8f0">POSITIONS / 保有銘柄</text>
    <g font-family="monospace" font-size="10">
      <text x="1010" y="346" fill="#9fb0c8">Sym</text>
      <text x="1080" y="346" fill="#9fb0c8">Qty</text>
      <text x="1160" y="346" fill="#9fb0c8">Avg</text>
      <text x="1240" y="346" fill="#9fb0c8">P/L</text>
      <line x1="1010" y1="352" x2="1310" y2="352" stroke="#2a3a5a"/>
      <text x="1010" y="370" fill="#e0e8f0">7203</text>
      <text x="1080" y="370" fill="#e0e8f0">1,000</text>
      <text x="1160" y="370" fill="#e0e8f0">2,455</text>
      <text x="1240" y="370" fill="#00FF7F">+30,000</text>
      <text x="1010" y="390" fill="#e0e8f0">6758</text>
      <text x="1080" y="390" fill="#e0e8f0">300</text>
      <text x="1160" y="390" fill="#e0e8f0">13,200</text>
      <text x="1240" y="390" fill="#FF3366">-1,500</text>
      <text x="1010" y="410" fill="#e0e8f0">9984</text>
      <text x="1080" y="410" fill="#e0e8f0">200</text>
      <text x="1160" y="410" fill="#e0e8f0">7,800</text>
      <text x="1240" y="410" fill="#00FF7F">+8,400</text>
    </g>
  </g>

  <!-- Floating window: Orders -->
  <g>
    <rect x="276" y="490" width="440" height="280" rx="6" fill="url(#windowGlass)" stroke="#00CFFF" stroke-width="1" opacity="0.95"/>
    <rect x="276" y="490" width="440" height="28" rx="6" fill="url(#titleBar)"/>
    <rect x="276" y="510" width="440" height="8" fill="#1a2540"/>
    <circle cx="290" cy="504" r="4" fill="#00FF7F"/>
    <text x="304" y="508" font-family="sans-serif" font-size="11" font-weight="bold" fill="#e0e8f0">ORDERS / 注文一覧</text>
    <text x="660" y="508" font-family="monospace" font-size="11" fill="#9fb0c8">— □ ×</text>
    <g font-family="monospace" font-size="10">
      <text x="286" y="540" fill="#9fb0c8">Time</text>
      <text x="356" y="540" fill="#9fb0c8">Sym</text>
      <text x="406" y="540" fill="#9fb0c8">Side</text>
      <text x="466" y="540" fill="#9fb0c8">Qty</text>
      <text x="526" y="540" fill="#9fb0c8">Price</text>
      <text x="600" y="540" fill="#9fb0c8">Status</text>
      <line x1="286" y1="546" x2="706" y2="546" stroke="#2a3a5a"/>
      <text x="286" y="566" fill="#e0e8f0">10:31:24</text>
      <text x="356" y="566" fill="#e0e8f0">7203</text>
      <text x="406" y="566" fill="#00FF7F">BUY</text>
      <text x="466" y="566" fill="#e0e8f0">100</text>
      <text x="526" y="566" fill="#e0e8f0">2,485</text>
      <text x="600" y="566" fill="#00FF7F">FILLED</text>
      <text x="286" y="586" fill="#e0e8f0">10:30:11</text>
      <text x="356" y="586" fill="#e0e8f0">6758</text>
      <text x="406" y="586" fill="#FF3366">SELL</text>
      <text x="466" y="586" fill="#e0e8f0">300</text>
      <text x="526" y="586" fill="#e0e8f0">13,150</text>
      <text x="600" y="586" fill="#00CFFF">WORKING</text>
      <text x="286" y="606" fill="#e0e8f0">10:28:55</text>
      <text x="356" y="606" fill="#e0e8f0">9984</text>
      <text x="406" y="606" fill="#00FF7F">BUY</text>
      <text x="466" y="606" fill="#e0e8f0">200</text>
      <text x="526" y="606" fill="#e0e8f0">7,800</text>
      <text x="600" y="606" fill="#00FF7F">FILLED</text>
      <text x="286" y="626" fill="#e0e8f0">10:25:02</text>
      <text x="356" y="626" fill="#e0e8f0">8306</text>
      <text x="406" y="626" fill="#FF3366">SELL</text>
      <text x="466" y="626" fill="#e0e8f0">500</text>
      <text x="526" y="626" fill="#e0e8f0">1,420</text>
      <text x="600" y="626" fill="#9fb0c8">CANCELED</text>
    </g>
    <text x="286" y="752" font-family="sans-serif" font-size="9" fill="#5a7090">Draggable / 軸独立配置 / Zoom in world space</text>
  </g>

  <!-- Footer -->
  <rect x="40" y="820" width="1320" height="60" rx="0" fill="#0a0e1a" stroke="#2a3a5a"/>
  <rect x="40" y="820" width="1320" height="1" fill="#00CFFF" opacity="0.4"/>
  <text x="60" y="842" font-family="sans-serif" font-size="10" fill="#9fb0c8">REPLAY TIME / 時刻</text>
  <text x="60" y="864" font-family="monospace" font-size="16" fill="#00CFFF">2024-04-15  10:31:24.250</text>

  <text x="320" y="842" font-family="sans-serif" font-size="10" fill="#9fb0c8">STATE</text>
  <rect x="320" y="850" width="80" height="22" rx="11" fill="#00FF7F"/>
  <text x="360" y="866" font-family="sans-serif" font-size="11" font-weight="bold" fill="#0a0e1a" text-anchor="middle">RUNNING</text>

  <text x="430" y="842" font-family="sans-serif" font-size="10" fill="#9fb0c8">TRANSPORT</text>
  <circle cx="445" cy="862" r="12" fill="#1a2440" stroke="#00CFFF"/>
  <text x="445" y="867" font-family="sans-serif" font-size="14" fill="#00CFFF" text-anchor="middle">⏮</text>
  <circle cx="475" cy="862" r="14" fill="#00CFFF"/>
  <text x="475" y="868" font-family="sans-serif" font-size="14" fill="#0a0e1a" text-anchor="middle" font-weight="bold">⏸</text>
  <circle cx="507" cy="862" r="12" fill="#1a2440" stroke="#00CFFF"/>
  <text x="507" y="867" font-family="sans-serif" font-size="14" fill="#00CFFF" text-anchor="middle">⏭</text>

  <text x="540" y="842" font-family="sans-serif" font-size="10" fill="#9fb0c8">SPEED</text>
  <rect x="540" y="850" width="80" height="22" rx="4" fill="#1a2440" stroke="#2a3a5a"/>
  <text x="580" y="866" font-family="monospace" font-size="12" fill="#e0e8f0" text-anchor="middle">1.0×  ▾</text>

  <text x="640" y="842" font-family="sans-serif" font-size="10" fill="#9fb0c8">PROGRESS</text>
  <rect x="640" y="852" width="500" height="14" rx="7" fill="#0f1628" stroke="#2a3a5a"/>
  <rect x="642" y="854" width="220" height="10" rx="5" fill="#00CFFF"/>
  <text x="1150" y="864" font-family="monospace" font-size="11" fill="#9fb0c8">44%</text>

  <text x="1220" y="842" font-family="sans-serif" font-size="10" fill="#9fb0c8">FPS</text>
  <text x="1220" y="864" font-family="monospace" font-size="14" fill="#00FF7F">60</text>
  <text x="1280" y="842" font-family="sans-serif" font-size="10" fill="#9fb0c8">gRPC</text>
  <text x="1280" y="864" font-family="monospace" font-size="11" fill="#00FF7F">OK</text>

  <text x="1340" y="876" font-family="sans-serif" font-size="9" fill="#5a7090" text-anchor="end">Footer (bevy_ui, screen-space, 固定)</text>

  <!-- Annotation arrows -->
  <g font-family="sans-serif" font-size="10" fill="#00CFFF">
    <line x1="240" y1="450" x2="200" y2="450" stroke="#00CFFF" stroke-dasharray="3,3"/>
    <text x="170" y="448" text-anchor="end">Sidebar↓</text>
  </g>

  <!-- ============ FIGURE 2: Replay Start Modal ============ -->
  <text x="40" y="945" font-family="sans-serif" font-size="18" font-weight="bold" fill="#e0e8f0">Figure 2: Replay Start Popup — Modal Floating Window / リプレイ開始ポップアップ</text>

  <rect x="40" y="970" width="1320" height="540" rx="10" fill="#02050b" stroke="#1a2540"/>
  <rect x="40" y="970" width="1320" height="540" rx="10" fill="#000000" opacity="0.5"/>
  <text x="60" y="996" font-family="sans-serif" font-size="11" fill="#5a7090">Dimmed underlying dashboard (背景の dashboard はディム表示)</text>

  <!-- Modal -->
  <g>
    <rect x="430" y="1010" width="540" height="480" rx="10" fill="url(#windowGlass)" stroke="#00CFFF" stroke-width="2"/>
    <rect x="430" y="1010" width="540" height="40" rx="10" fill="url(#titleBar)"/>
    <rect x="430" y="1040" width="540" height="10" fill="#1a2540"/>
    <text x="700" y="1036" font-family="sans-serif" font-size="15" font-weight="bold" fill="#00CFFF" text-anchor="middle">Start Replay Session / リプレイ開始</text>
    <text x="950" y="1036" font-family="monospace" font-size="13" fill="#9fb0c8">×</text>

    <text x="456" y="1080" font-family="sans-serif" font-size="11" fill="#9fb0c8">Data Path / データパス</text>
    <rect x="456" y="1088" width="448" height="28" rx="3" fill="#0a0e1a" stroke="#2a3a5a"/>
    <text x="466" y="1106" font-family="monospace" font-size="11" fill="#e0e8f0">S:/j-quants/2024/04/15/7203.parquet</text>
    <rect x="908" y="1088" width="48" height="28" rx="3" fill="#1a2440" stroke="#00CFFF"/>
    <text x="932" y="1106" font-family="sans-serif" font-size="11" fill="#00CFFF" text-anchor="middle">...</text>

    <text x="456" y="1140" font-family="sans-serif" font-size="11" fill="#9fb0c8">Symbol(s) / 銘柄</text>
    <rect x="456" y="1148" width="500" height="28" rx="3" fill="#0a0e1a" stroke="#2a3a5a"/>
    <rect x="464" y="1153" width="50" height="18" rx="9" fill="#1a4d4d"/>
    <text x="489" y="1166" font-family="monospace" font-size="10" fill="#00CFFF" text-anchor="middle">7203 ×</text>
    <rect x="518" y="1153" width="50" height="18" rx="9" fill="#1a4d4d"/>
    <text x="543" y="1166" font-family="monospace" font-size="10" fill="#00CFFF" text-anchor="middle">6758 ×</text>
    <text x="580" y="1166" font-family="sans-serif" font-size="11" fill="#5a7090">+ Add...</text>

    <text x="456" y="1200" font-family="sans-serif" font-size="11" fill="#9fb0c8">Start Date / 開始</text>
    <rect x="456" y="1208" width="220" height="28" rx="3" fill="#0a0e1a" stroke="#2a3a5a"/>
    <text x="466" y="1226" font-family="monospace" font-size="11" fill="#e0e8f0">2024-04-15  09:00</text>
    <text x="700" y="1200" font-family="sans-serif" font-size="11" fill="#9fb0c8">End Date / 終了</text>
    <rect x="700" y="1208" width="220" height="28" rx="3" fill="#0a0e1a" stroke="#2a3a5a"/>
    <text x="710" y="1226" font-family="monospace" font-size="11" fill="#e0e8f0">2024-04-15  15:00</text>

    <text x="456" y="1260" font-family="sans-serif" font-size="11" fill="#9fb0c8">Speed / 速度</text>
    <text x="930" y="1260" font-family="monospace" font-size="11" fill="#00CFFF" text-anchor="end">1.0×</text>
    <rect x="456" y="1268" width="500" height="6" rx="3" fill="#0a0e1a" stroke="#2a3a5a"/>
    <rect x="456" y="1268" width="80" height="6" rx="3" fill="#00CFFF"/>
    <circle cx="536" cy="1271" r="8" fill="#00CFFF" stroke="#e0e8f0"/>
    <text x="456" y="1292" font-family="sans-serif" font-size="9" fill="#5a7090">0.1×</text>
    <text x="956" y="1292" font-family="sans-serif" font-size="9" fill="#5a7090" text-anchor="end">100×</text>

    <text x="456" y="1320" font-family="sans-serif" font-size="11" fill="#9fb0c8">Initial Buying Power / 初期建余力</text>
    <rect x="456" y="1328" width="240" height="28" rx="3" fill="#0a0e1a" stroke="#2a3a5a"/>
    <text x="466" y="1346" font-family="monospace" font-size="11" fill="#e0e8f0">¥ 10,000,000</text>

    <line x1="456" y1="1380" x2="944" y2="1380" stroke="#2a3a5a"/>
    <text x="456" y="1402" font-family="sans-serif" font-size="10" fill="#9fb0c8">State Transition / 状態遷移:</text>
    <rect x="456" y="1412" width="80" height="24" rx="4" fill="#1a2440" stroke="#5a7090"/>
    <text x="496" y="1428" font-family="monospace" font-size="11" fill="#9fb0c8" text-anchor="middle">IDLE</text>
    <text x="544" y="1428" font-family="sans-serif" font-size="14" fill="#00CFFF">→</text>
    <rect x="564" y="1412" width="80" height="24" rx="4" fill="#1a2440" stroke="#00CFFF"/>
    <text x="604" y="1428" font-family="monospace" font-size="11" fill="#00CFFF" text-anchor="middle">LOADED</text>
    <text x="652" y="1428" font-family="sans-serif" font-size="14" fill="#00CFFF">→</text>
    <rect x="672" y="1412" width="80" height="24" rx="4" fill="#00FF7F"/>
    <text x="712" y="1428" font-family="monospace" font-size="11" font-weight="bold" fill="#0a0e1a" text-anchor="middle">RUNNING</text>
    <text x="756" y="1428" font-family="sans-serif" font-size="9" fill="#5a7090">via [Load] / [Start]</text>

    <!-- Buttons -->
    <rect x="456" y="1450" width="100" height="32" rx="4" fill="#1a2440" stroke="#5a7090"/>
    <text x="506" y="1471" font-family="sans-serif" font-size="12" fill="#9fb0c8" text-anchor="middle">Cancel</text>
    <rect x="730" y="1450" width="100" height="32" rx="4" fill="#1a2440" stroke="#00CFFF"/>
    <text x="780" y="1471" font-family="sans-serif" font-size="12" fill="#00CFFF" text-anchor="middle" font-weight="bold">Load</text>
    <rect x="840" y="1450" width="120" height="32" rx="4" fill="#00FF7F"/>
    <text x="900" y="1471" font-family="sans-serif" font-size="12" fill="#0a0e1a" text-anchor="middle" font-weight="bold">Start Engine</text>
  </g>

  <!-- ============ FIGURE 3: ECS Hierarchy ============ -->
  <text x="40" y="1555" font-family="sans-serif" font-size="18" font-weight="bold" fill="#e0e8f0">Figure 3: Bevy ECS Component Hierarchy / コンポーネント階層</text>

  <rect x="40" y="1580" width="1320" height="1020" rx="10" fill="#0a0e1a" stroke="#2a3a5a"/>

  <!-- Legend -->
  <rect x="60" y="1600" width="280" height="74" rx="6" fill="#0f1628" stroke="#2a3a5a"/>
  <text x="74" y="1620" font-family="sans-serif" font-size="11" font-weight="bold" fill="#e0e8f0">Legend / 凡例</text>
  <rect x="74" y="1630" width="16" height="14" fill="#1a4d4d" stroke="#00CFFF"/>
  <text x="96" y="1642" font-family="sans-serif" font-size="11" fill="#e0e8f0">Screen-space (bevy_ui Node) — UI 固定</text>
  <rect x="74" y="1652" width="16" height="14" fill="#3d1a4d" stroke="#a070ff"/>
  <text x="96" y="1664" font-family="sans-serif" font-size="11" fill="#e0e8f0">World-space (Sprite + Transform) — canvas</text>

  <!-- Root -->
  <rect x="580" y="1600" width="240" height="50" rx="6" fill="#1a2540" stroke="#00CFFF" stroke-width="2"/>
  <text x="700" y="1620" font-family="sans-serif" font-size="14" font-weight="bold" fill="#00CFFF" text-anchor="middle">UiPlugin</text>
  <text x="700" y="1640" font-family="monospace" font-size="10" fill="#9fb0c8" text-anchor="middle">src/ui/mod.rs</text>

  <!-- Children of UiPlugin: 5 roots -->
  <line x1="700" y1="1650" x2="700" y2="1700" stroke="#5a7090"/>
  <line x1="160" y1="1700" x2="1240" y2="1700" stroke="#5a7090"/>

  <!-- MenuBarRoot -->
  <line x1="160" y1="1700" x2="160" y2="1730" stroke="#5a7090"/>
  <rect x="60" y="1730" width="200" height="50" rx="6" fill="#1a4d4d" stroke="#00CFFF"/>
  <text x="160" y="1750" font-family="sans-serif" font-size="12" font-weight="bold" fill="#e0e8f0" text-anchor="middle">MenuBarRoot</text>
  <text x="160" y="1768" font-family="monospace" font-size="10" fill="#9fb0c8" text-anchor="middle">bevy_ui · screen-space</text>
  <line x1="160" y1="1780" x2="160" y2="1810" stroke="#5a7090" stroke-dasharray="3,3"/>
  <rect x="60" y="1810" width="200" height="100" rx="4" fill="#0f1628" stroke="#2a3a5a"/>
  <text x="74" y="1828" font-family="sans-serif" font-size="10" fill="#9fb0c8">FileMenu</text>
  <text x="74" y="1846" font-family="sans-serif" font-size="10" fill="#9fb0c8">  └ OpenReplayData</text>
  <text x="74" y="1864" font-family="sans-serif" font-size="10" fill="#9fb0c8">  └ SaveLayout</text>
  <text x="74" y="1882" font-family="sans-serif" font-size="10" fill="#9fb0c8">ViewMenu / ReplayMenu</text>
  <text x="74" y="1900" font-family="sans-serif" font-size="10" fill="#9fb0c8">VenueMenu / HelpMenu</text>

  <!-- SidebarRoot -->
  <line x1="430" y1="1700" x2="430" y2="1730" stroke="#5a7090"/>
  <rect x="330" y="1730" width="200" height="50" rx="6" fill="#1a4d4d" stroke="#00CFFF"/>
  <text x="430" y="1750" font-family="sans-serif" font-size="12" font-weight="bold" fill="#e0e8f0" text-anchor="middle">SidebarRoot</text>
  <text x="430" y="1768" font-family="monospace" font-size="10" fill="#9fb0c8" text-anchor="middle">bevy_ui · screen-space</text>
  <line x1="430" y1="1780" x2="430" y2="1810" stroke="#5a7090" stroke-dasharray="3,3"/>
  <rect x="330" y="1810" width="200" height="100" rx="4" fill="#0f1628" stroke="#2a3a5a"/>
  <text x="344" y="1828" font-family="sans-serif" font-size="10" fill="#9fb0c8">TickersPanel</text>
  <text x="344" y="1846" font-family="sans-serif" font-size="10" fill="#9fb0c8">  └ TickerRow ×N</text>
  <text x="344" y="1864" font-family="sans-serif" font-size="10" fill="#9fb0c8">SettingsPanel</text>
  <text x="344" y="1882" font-family="sans-serif" font-size="10" fill="#9fb0c8">  └ ThemeSelector</text>
  <text x="344" y="1900" font-family="sans-serif" font-size="10" fill="#9fb0c8">  └ BackendField</text>

  <!-- CanvasRoot -->
  <line x1="700" y1="1700" x2="700" y2="1730" stroke="#5a7090"/>
  <rect x="600" y="1730" width="200" height="50" rx="6" fill="#3d1a4d" stroke="#a070ff"/>
  <text x="700" y="1750" font-family="sans-serif" font-size="12" font-weight="bold" fill="#e0e8f0" text-anchor="middle">CanvasRoot</text>
  <text x="700" y="1768" font-family="monospace" font-size="10" fill="#a070ff" text-anchor="middle">Camera2d + PanCam · world</text>
  <line x1="700" y1="1780" x2="700" y2="1810" stroke="#a070ff" stroke-dasharray="3,3"/>
  <rect x="540" y="1810" width="320" height="140" rx="4" fill="#0f1628" stroke="#3d1a4d"/>
  <text x="554" y="1828" font-family="sans-serif" font-size="11" font-weight="bold" fill="#a070ff">WindowRoot (Sprite, world-space) ×N</text>
  <text x="554" y="1846" font-family="sans-serif" font-size="10" fill="#9fb0c8">  ├ KlineChartWindow</text>
  <text x="554" y="1862" font-family="sans-serif" font-size="10" fill="#9fb0c8">  │  └ TitleBar / PriceDisplay / Chart / Buttons</text>
  <text x="554" y="1878" font-family="sans-serif" font-size="10" fill="#9fb0c8">  ├ LadderWindow</text>
  <text x="554" y="1894" font-family="sans-serif" font-size="10" fill="#9fb0c8">  ├ BuyingPowerPanel</text>
  <text x="554" y="1910" font-family="sans-serif" font-size="10" fill="#9fb0c8">  ├ PositionsPanel</text>
  <text x="554" y="1926" font-family="sans-serif" font-size="10" fill="#9fb0c8">  └ OrdersPanel</text>
  <text x="554" y="1944" font-family="sans-serif" font-size="9" fill="#5a7090">  各 entity が Draggable / Zoomable</text>

  <!-- FooterRoot -->
  <line x1="970" y1="1700" x2="970" y2="1730" stroke="#5a7090"/>
  <rect x="870" y="1730" width="200" height="50" rx="6" fill="#1a4d4d" stroke="#00CFFF"/>
  <text x="970" y="1750" font-family="sans-serif" font-size="12" font-weight="bold" fill="#e0e8f0" text-anchor="middle">FooterRoot</text>
  <text x="970" y="1768" font-family="monospace" font-size="10" fill="#9fb0c8" text-anchor="middle">bevy_ui · screen-space</text>
  <line x1="970" y1="1780" x2="970" y2="1810" stroke="#5a7090" stroke-dasharray="3,3"/>
  <rect x="870" y="1810" width="200" height="100" rx="4" fill="#0f1628" stroke="#2a3a5a"/>
  <text x="884" y="1828" font-family="sans-serif" font-size="10" fill="#9fb0c8">ReplayTimeLabel</text>
  <text x="884" y="1846" font-family="sans-serif" font-size="10" fill="#9fb0c8">ReplayStateBadge</text>
  <text x="884" y="1864" font-family="sans-serif" font-size="10" fill="#9fb0c8">TransportControls (⏮⏯⏭)</text>
  <text x="884" y="1882" font-family="sans-serif" font-size="10" fill="#9fb0c8">SpeedSelector / Progress</text>
  <text x="884" y="1900" font-family="sans-serif" font-size="10" fill="#9fb0c8">FpsCounter / GrpcStatus</text>

  <!-- ModalLayer -->
  <line x1="1240" y1="1700" x2="1240" y2="1730" stroke="#5a7090"/>
  <rect x="1140" y="1730" width="200" height="50" rx="6" fill="#1a4d4d" stroke="#00CFFF"/>
  <text x="1240" y="1750" font-family="sans-serif" font-size="12" font-weight="bold" fill="#e0e8f0" text-anchor="middle">ModalLayer</text>
  <text x="1240" y="1768" font-family="monospace" font-size="10" fill="#9fb0c8" text-anchor="middle">bevy_ui overlay · top z</text>
  <line x1="1240" y1="1780" x2="1240" y2="1810" stroke="#5a7090" stroke-dasharray="3,3"/>
  <rect x="1140" y="1810" width="200" height="100" rx="4" fill="#0f1628" stroke="#2a3a5a"/>
  <text x="1154" y="1828" font-family="sans-serif" font-size="10" fill="#9fb0c8">ReplayStartModal</text>
  <text x="1154" y="1846" font-family="sans-serif" font-size="10" fill="#9fb0c8">  └ DataPathField</text>
  <text x="1154" y="1864" font-family="sans-serif" font-size="10" fill="#9fb0c8">  └ SymbolSelector</text>
  <text x="1154" y="1882" font-family="sans-serif" font-size="10" fill="#9fb0c8">  └ DateRange / Speed</text>
  <text x="1154" y="1900" font-family="sans-serif" font-size="10" fill="#9fb0c8">  └ Cancel/Load/Start</text>

  <!-- Resources & Systems -->
  <rect x="60" y="1980" width="620" height="600" rx="6" fill="#0c1322" stroke="#2a3a5a"/>
  <text x="74" y="2002" font-family="sans-serif" font-size="13" font-weight="bold" fill="#00CFFF">Resources (shared state) / 共有リソース</text>
  <rect x="74" y="2014" width="592" height="1" fill="#2a3a5a"/>
  <g font-family="monospace" font-size="11" fill="#e0e8f0">
    <text x="74" y="2036">ReplayTime { timestamp_ms: i64 }</text>
    <text x="74" y="2056">ReplayStateRes { phase: IDLE/LOADED/RUNNING/PAUSED/STOPPING }</text>
    <text x="74" y="2076">ReplaySpeed { multiplier: f32 }</text>
    <text x="74" y="2096">TradingState { price, history, timestamp }</text>
    <text x="74" y="2116">PortfolioState { buying_power, positions[], orders[] }</text>
    <text x="74" y="2136">SelectedSymbol(Option&lt;TickerId&gt;)</text>
    <text x="74" y="2156">WindowManager { max_z: f32 }</text>
    <text x="74" y="2176">GrpcClientHandle { tonic channel }</text>
  </g>

  <text x="74" y="2212" font-family="sans-serif" font-size="13" font-weight="bold" fill="#00CFFF">Systems / 更新ループ</text>
  <rect x="74" y="2224" width="592" height="1" fill="#2a3a5a"/>
  <g font-family="monospace" font-size="11" fill="#e0e8f0">
    <text x="74" y="2246">poll_engine_state_system   // 60 Hz GetState polling</text>
    <text x="74" y="2266">replay_time_sync_system     // ReplayTime → footer label</text>
    <text x="74" y="2286">portfolio_sync_system       // GetPortfolio → PortfolioState</text>
    <text x="74" y="2306">transport_button_system     // ⏮⏯⏭ → ControlReplay RPC</text>
    <text x="74" y="2326">menu_open_replay_system     // File→Open ⇒ open ModalLayer</text>
    <text x="74" y="2346">replay_start_modal_system   // Load/Start → LoadReplayData / StartEngine</text>
    <text x="74" y="2366">kline_chart_render_system   // history → candle mesh</text>
    <text x="74" y="2386">ladder_render_system        // depth snapshot → ladder rows</text>
    <text x="74" y="2406">positions_render_system     // PortfolioState.positions</text>
    <text x="74" y="2426">orders_render_system        // PortfolioState.orders</text>
    <text x="74" y="2446">buying_power_render_system  // PortfolioState.buying_power</text>
    <text x="74" y="2466">window_drag_system          // TitleBar drag (existing)</text>
    <text x="74" y="2486">window_focus_z_system       // bring-to-front (existing)</text>
  </g>

  <text x="74" y="2522" font-family="sans-serif" font-size="13" font-weight="bold" fill="#00CFFF">Events / イベント</text>
  <rect x="74" y="2534" width="592" height="1" fill="#2a3a5a"/>
  <g font-family="monospace" font-size="11" fill="#e0e8f0">
    <text x="74" y="2556">OpenReplayRequested / ReplayLoaded / ReplayStarted / ReplayStopped</text>
  </g>

  <!-- gRPC mapping -->
  <rect x="700" y="1980" width="640" height="600" rx="6" fill="#0c1322" stroke="#2a3a5a"/>
  <text x="714" y="2002" font-family="sans-serif" font-size="13" font-weight="bold" fill="#00CFFF">gRPC ⇄ UI Mapping / Phase 6 API への接続</text>
  <rect x="714" y="2014" width="612" height="1" fill="#2a3a5a"/>
  <g font-family="monospace" font-size="11">
    <text x="714" y="2040" fill="#9fb0c8">// Polling (60 Hz)</text>
    <text x="714" y="2060" fill="#e0e8f0">GetState()              → ReplayTime, TradingState</text>
    <text x="714" y="2080" fill="#e0e8f0">GetPortfolio()          → PortfolioState   (新規 DTO)</text>
    <text x="714" y="2104" fill="#9fb0c8">// Modal flow / モーダル</text>
    <text x="714" y="2124" fill="#e0e8f0">LoadReplayData(path,    → IDLE → LOADED</text>
    <text x="714" y="2140" fill="#e0e8f0">  symbols, range)</text>
    <text x="714" y="2160" fill="#e0e8f0">StartEngine()           → LOADED → RUNNING</text>
    <text x="714" y="2184" fill="#9fb0c8">// Transport buttons / フッター制御</text>
    <text x="714" y="2204" fill="#e0e8f0">PauseReplay()           → RUNNING → PAUSED</text>
    <text x="714" y="2224" fill="#e0e8f0">ResumeReplay()          → PAUSED → RUNNING</text>
    <text x="714" y="2244" fill="#e0e8f0">StepReplay(n)           → PAUSED でのみ</text>
    <text x="714" y="2264" fill="#e0e8f0">SetReplaySpeed(x)       → 速度変更</text>
    <text x="714" y="2284" fill="#e0e8f0">StopReplay()            → * → STOPPING → IDLE</text>
    <text x="714" y="2304" fill="#e0e8f0">StopEngine()            → 戦略停止 (リプレイ継続)</text>
  </g>

  <text x="714" y="2342" font-family="sans-serif" font-size="13" font-weight="bold" fill="#00CFFF">Streaming 評価 (Phase 6 で決定)</text>
  <rect x="714" y="2354" width="612" height="1" fill="#2a3a5a"/>
  <g font-family="monospace" font-size="11" fill="#e0e8f0">
    <text x="714" y="2376">A. 現状の Unary GetState 60Hz polling 継続</text>
    <text x="714" y="2396">B. Session streaming subscribe (server stream)</text>
    <text x="714" y="2416">UI 層は SubscriptionAgnostic で両対応 (Strategy &amp; Principles §4)</text>
  </g>

  <text x="714" y="2452" font-family="sans-serif" font-size="13" font-weight="bold" fill="#00CFFF">Step-back (Optional, Phase 7 後半)</text>
  <rect x="714" y="2464" width="612" height="1" fill="#2a3a5a"/>
  <g font-family="monospace" font-size="11" fill="#e0e8f0">
    <text x="714" y="2486">StepBackward(n)         → snapshot ring buffer から復元</text>
    <text x="714" y="2506">PortfolioState rollback 含む (positions/orders も巻き戻し)</text>
    <text x="714" y="2526">フッターに ⏪ ボタン追加</text>
  </g>
</svg>
